# xmcd CD database file
#
# Track frame offsets:
#	150
#	27172
#	63255
#	87612
#	104640
#	124967
#	159420
#	181335
#	207197
#	229042
#
# Disc length: 3349 seconds
#
# Revision: 0
# Processed by: cddbd v1.5.1PL0 Copyright (c) Steve Scherf et al.
# Submitted via: CDex 1.51
#
DISCID=850d130a
DTITLE=Christian Lavigne - Flowing
DYEAR=1999
DGENRE=Jazz
TTITLE0=Ritournelle
TTITLE1=Blue star
TTITLE2=Embruns et en bleu
TTITLE3=Zarblues
TTITLE4=Glop
TTITLE5=Il va bientôt faire nuit
TTITLE6=Ultra light dreamer
TTITLE7=Se canto
TTITLE8=Bird food
TTITLE9=Au milieu des arbres
EXTD=YEAR: 1999
EXTT0=
EXTT1=
EXTT2=
EXTT3=
EXTT4=
EXTT5=
EXTT6=
EXTT7=
EXTT8=
EXTT9=
PLAYORDER=
